<!--<?xml version="1.0" encoding="utf-8"?><svg xmlns="http://www.w3.org/2000/svg" xmlns:xlink="http://www.w3.org/1999/xlink" viewBox="0 0 24 24" width="24px" height="24px"><path d="M19,21H5c-1.1,0-2-0.9-2-2V5c0-1.1,0.9-2,2-2h7v2H5v14h14v-7h2v7C21,20.1,20.1,21,19,21z"/><polygon points="21,10 19,10 19,5 14,5 14,3 21,3 "/><rect x="6.7" y="8.5" transform="matrix(0.7071 -0.7071 0.7071 0.7071 -2.4706 13.0356)" width="15.6" height="2"/></svg>-->


<svg xmlns="http://www.w3.org/2000/svg" xmlns:xlink="http://www.w3.org/1999/xlink" viewBox="0 -3 24 24" width="16px" height="16px"><path fill="#3B5FC0" d="M19,21H5c-1.1,0-2-0.9-2-2V5c0-1.1,0.9-2,2-2h7v2H5v14h14v-7h2v7C21,20.1,20.1,21,19,21z"/><polygon points="21,10 19,10 19,5 14,5 14,3 21,3 "/><rect x="6.7" y="8.5" transform="matrix(0.7071 -0.7071 0.7071 0.7071 -2.4706 13.0356)" width="15.6" height="2"/>
</svg>