<svg xmlns="http://www.w3.org/2000/svg" version="1.1" xmlns:xlink="http://www.w3.org/1999/xlink" xmlns:svgjs="http://svgjs.com/svgjs" width="1000" height="1000"><g transform="matrix(0.8333333333333334,0,0,0.8333333333333334,0,-0.000050862630246228946)"><svg xmlns="http://www.w3.org/2000/svg" version="1.1" xmlns:xlink="http://www.w3.org/1999/xlink" xmlns:svgjs="http://svgjs.com/svgjs" width="1200" height="1200"><svg version="1.1" id="svg1" width="1200" height="1200" viewBox="0 0 1200 1200" xmlns="http://www.w3.org/2000/svg" xmlns:svg="http://www.w3.org/2000/svg">
  <defs id="defs1"></defs>
  <g id="g1" transform="translate(-611.88521,-304.00002)">
    <g id="g4" transform="translate(209.92151,136.03211)">
      <path style="fill:#e10b23" d="m 612,341.3356 v -37.33558 h 390.0211 390.0211 l -0.3544,37 -0.3545,37 -389.6666,0.33559 L 612,378.67119 Z" id="path5"></path>
      <path style="fill:#020202" d="m 970.66667,1230.5484 -19.33334,-1.048 -18.66666,-2.7873 -18.66667,-2.7873 -15.33333,-3.4336 -15.33334,-3.4335 -16.66666,-5.1208 -16.66667,-5.1207 -12,-4.8288 -12,-4.8287 -16.66667,-8.3616 -16.66666,-8.3616 -11.07547,-6.9413 -11.07547,-6.9413 -6.92453,-4.9001 -6.92453,-4.9001 -9.23504,-7.2878 -9.23503,-7.2878 -13.96289,-13.4224 -13.9629,-13.4223 -10.4585,-12.4121 -10.4585,-12.4121 -8.4879,-12.2546 -8.48789,-12.2545 -7.59799,-12.9964 -7.59799,-12.9964 -5.90276,-12.7179 -5.90277,-12.7178 -6.63836,-17.71412 -6.63835,-17.71409 -4.73058,-18.57167 -4.73059,-18.57167 -2.64511,-15.43727 -2.64511,-15.43727 -2.22899,-17.2294 -2.22899,-17.22939 -0.50261,-211.66668 -0.50261,-211.66668 h 37.39073 37.39073 l 0.0143,203.00001 0.0143,203.00001 1.92548,18 1.92549,18 3.34969,16.75758 3.34969,16.75759 5.302,17.24242 5.302,17.24242 4.82553,12 4.82552,12 7.36219,14.00001 7.36218,14 8.42945,12.6667 8.42945,12.6666 10.83337,12.9438 10.83336,12.9438 9.83261,8.8351 9.83261,8.835 10.45875,8.0779 10.45874,8.0779 9.01664,5.8853 9.01664,5.8853 16.98336,8.4803 16.98336,8.4804 13.14228,4.8527 13.14227,4.8527 17.52439,4.4877 17.5244,4.4877 19.33333,3.0573 19.33333,3.0574 38.00002,0.022 38,0.022 19.3995,-2.9999 19.3994,-2.9998 15.9339,-3.9884 15.9339,-3.9884 13.3333,-4.8068 13.3334,-4.8067 16,-7.6134 16,-7.6134 12.4802,-7.739 12.4802,-7.739 12.8531,-10.3122 12.8531,-10.3122 11.5661,-11.8495 11.5661,-11.8495 5.8679,-7.3333 5.8678,-7.3334 7.401,-10.6666 7.401,-10.6667 7.3423,-13.5778 7.3423,-13.57779 5.3214,-12.42221 5.3213,-12.42221 4.7094,-14.66667 4.7093,-14.66667 3.3957,-14 3.3956,-14 3.0065,-18.66667 3.0065,-18.66666 0.4406,-209.66668 0.4406,-209.66668 h 36.616 36.616 v 205.80639 205.80638 l -1.3905,17.19363 -1.3905,17.19362 -1.9799,12.66667 -1.98,12.66667 -2.7244,14 -2.7243,14 -5.3207,18.66667 -5.3207,18.66666 -6.0487,15.33335 -6.0486,15.3333 -9.1713,17.7792 -9.1714,17.7792 -11.3119,16.8875 -11.312,16.8875 -11.2136,13.3333 -11.2136,13.3333 -11.839,11.3464 -11.8389,11.3463 -10.5268,8.564 -10.5267,8.564 -16.6971,11.1505 -16.6971,11.1505 -22.7762,11.193 -22.7761,11.193 -19.7846,6.7479 -19.7846,6.7479 -10.5578,2.6956 -10.5578,2.6957 -12.9909,2.5705 -12.991,2.5705 -15.3333,2.1163 -15.3334,2.1162 -23.3333,1.2507 -23.3333,1.2507 -7.33342,-0.17 -7.33333,-0.17 z m -8,-332.52821 V 786.66671 h -110 -110 v -37.33334 -37.33333 h 109.99234 109.99234 l 0.34099,-111.00001 0.34099,-111 H 1002 h 38.6667 l 0.3104,110.66667 0.3105,110.66667 110.0229,0.34104 110.0228,0.34104 v 37.31792 37.31793 l -110.0093,0.34104 -110.0093,0.34104 -0.324,110.66667 -0.324,110.66665 -39,0.3535 -39.00003,0.3535 z" id="path4"></path>
    </g>
  </g>
</svg></svg></g></svg>